<svg xmlns="http://www.w3.org/2000/svg" width="75" height="51" viewBox="0 0 75 51" fill="none">
    <path d="M17.441 31.536C15.7983 31.536 14.4757 31.088 13.473 30.192C12.4703 29.296 11.969 27.9733 11.969 26.224C11.969 25.52 12.0223 24.8693 12.129 24.272C12.2357 23.6747 12.3423 23.0773 12.449 22.48C12.577 21.8613 12.641 21.1787 12.641 20.432C12.641 19.7067 12.4063 19.0667 11.937 18.512C11.489 17.936 10.6677 17.5733 9.473 17.424V14.128C10.6677 13.9787 11.489 13.6373 11.937 13.104C12.4063 12.5493 12.641 11.888 12.641 11.12C12.641 10.3947 12.577 9.73333 12.449 9.136C12.3423 8.51733 12.2357 7.90933 12.129 7.312C12.0223 6.71467 11.969 6.05333 11.969 5.328C11.969 3.6 12.4703 2.288 13.473 1.392C14.4757 0.495998 15.7983 0.0479984 17.441 0.0479984H19.457V3.44H18.209C16.673 3.44 15.905 4.19733 15.905 5.712C15.905 6.544 16.001 7.38667 16.193 8.24C16.4063 9.072 16.513 10.0853 16.513 11.28C16.513 12.4107 16.2357 13.3813 15.681 14.192C15.1263 14.9813 14.241 15.504 13.025 15.76V15.824C14.241 16.08 15.1263 16.6133 15.681 17.424C16.2357 18.2133 16.513 19.1733 16.513 20.304C16.513 21.4987 16.4063 22.5227 16.193 23.376C16.001 24.208 15.905 25.04 15.905 25.872C15.905 27.3867 16.673 28.144 18.209 28.144H19.457V31.536H17.441ZM23.8623 26L32.3103 7.088H21.2703V3.6H36.5343V6.512L28.1183 26H23.8623ZM39.956 26L48.404 7.088H37.364V3.6H52.628V6.512L44.212 26H39.956ZM54.5778 31.536V28.144H55.7938C57.3511 28.144 58.1298 27.3867 58.1298 25.872C58.1298 25.04 58.0231 24.208 57.8098 23.376C57.5964 22.5227 57.4898 21.4987 57.4898 20.304C57.4898 19.1733 57.7671 18.2133 58.3218 17.424C58.8764 16.6133 59.7724 16.08 61.0098 15.824V15.76C59.7724 15.504 58.8764 14.9813 58.3218 14.192C57.7671 13.3813 57.4898 12.4107 57.4898 11.28C57.4898 10.0853 57.5964 9.072 57.8098 8.24C58.0231 7.38667 58.1298 6.544 58.1298 5.712C58.1298 4.19733 57.3511 3.44 55.7938 3.44H54.5778V0.0479984H56.5618C58.2044 0.0479984 59.5271 0.495998 60.5298 1.392C61.5538 2.288 62.0658 3.6 62.0658 5.328C62.0658 6.05333 62.0018 6.71467 61.8738 7.312C61.7671 7.90933 61.6498 8.51733 61.5218 9.136C61.4151 9.73333 61.3618 10.3947 61.3618 11.12C61.3618 11.888 61.5964 12.5493 62.0658 13.104C62.5351 13.6373 63.3671 13.9787 64.5618 14.128V17.424C63.3671 17.5733 62.5351 17.936 62.0658 18.512C61.5964 19.0667 61.3618 19.7067 61.3618 20.432C61.3618 21.1787 61.4151 21.8613 61.5218 22.48C61.6498 23.0773 61.7671 23.6747 61.8738 24.272C62.0018 24.8693 62.0658 25.52 62.0658 26.224C62.0658 27.9733 61.5538 29.296 60.5298 30.192C59.5271 31.088 58.2044 31.536 56.5618 31.536H54.5778ZM-0.00718743 46V32H2.55281V46H-0.00718743ZM3.36625 46L8.48625 32H11.3663L16.4863 46H13.7663L12.6463 42.76H7.18625L6.04625 46H3.36625ZM7.88625 40.76H11.9463L9.90625 34.94L7.88625 40.76ZM17.2297 46V36.08H19.4897L19.7097 37.42C20.0297 36.94 20.4497 36.56 20.9697 36.28C21.503 35.9867 22.1164 35.84 22.8097 35.84C24.343 35.84 25.4297 36.4333 26.0697 37.62C26.4297 37.0733 26.9097 36.64 27.5097 36.32C28.123 36 28.7897 35.84 29.5097 35.84C30.803 35.84 31.7964 36.2267 32.4897 37C33.183 37.7733 33.5297 38.9067 33.5297 40.4V46H30.9697V40.64C30.9697 39.7867 30.803 39.1333 30.4697 38.68C30.1497 38.2267 29.6497 38 28.9697 38C28.2764 38 27.7164 38.2533 27.2897 38.76C26.8764 39.2667 26.6697 39.9733 26.6697 40.88V46H24.1097V40.64C24.1097 39.7867 23.943 39.1333 23.6097 38.68C23.2764 38.2267 22.763 38 22.0697 38C21.3897 38 20.8364 38.2533 20.4097 38.76C19.9964 39.2667 19.7897 39.9733 19.7897 40.88V46H17.2297ZM41.5802 46.24C40.1802 46.24 38.9535 45.9333 37.9002 45.32C36.8602 44.7067 36.0402 43.86 35.4402 42.78C34.8535 41.6867 34.5602 40.4267 34.5602 39C34.5602 37.5733 34.8535 36.32 35.4402 35.24C36.0402 34.1467 36.8602 33.2933 37.9002 32.68C38.9535 32.0667 40.1802 31.76 41.5802 31.76C42.9668 31.76 44.1868 32.0667 45.2402 32.68C46.2935 33.2933 47.1135 34.1467 47.7002 35.24C48.2868 36.32 48.5802 37.5733 48.5802 39C48.5802 40.4267 48.2868 41.6867 47.7002 42.78C47.1135 43.86 46.2935 44.7067 45.2402 45.32C44.1868 45.9333 42.9668 46.24 41.5802 46.24ZM41.5802 43.94C42.9135 43.94 43.9735 43.5 44.7602 42.62C45.5602 41.74 45.9602 40.5333 45.9602 39C45.9602 37.4667 45.5602 36.26 44.7602 35.38C43.9735 34.5 42.9135 34.06 41.5802 34.06C40.2468 34.06 39.1802 34.5 38.3802 35.38C37.5802 36.26 37.1802 37.4667 37.1802 39C37.1802 40.5333 37.5802 41.74 38.3802 42.62C39.1802 43.5 40.2468 43.94 41.5802 43.94ZM53.8805 46.24C53.0005 46.24 52.2271 46.1 51.5605 45.82C50.8938 45.5267 50.3605 45.1267 49.9605 44.62C49.5605 44.1133 49.3205 43.5267 49.2405 42.86H51.8205C51.9005 43.2467 52.1138 43.58 52.4605 43.86C52.8205 44.1267 53.2805 44.26 53.8405 44.26C54.4005 44.26 54.8071 44.1467 55.0605 43.92C55.3271 43.6933 55.4605 43.4333 55.4605 43.14C55.4605 42.7133 55.2738 42.4267 54.9005 42.28C54.5271 42.12 54.0071 41.9667 53.3405 41.82C52.9138 41.7267 52.4805 41.6133 52.0405 41.48C51.6005 41.3467 51.1938 41.18 50.8205 40.98C50.4605 40.7667 50.1671 40.5 49.9405 40.18C49.7138 39.8467 49.6005 39.44 49.6005 38.96C49.6005 38.08 49.9471 37.34 50.6405 36.74C51.3471 36.14 52.3338 35.84 53.6005 35.84C54.7738 35.84 55.7071 36.1133 56.4005 36.66C57.1071 37.2067 57.5271 37.96 57.6605 38.92H55.2405C55.0938 38.1867 54.5405 37.82 53.5805 37.82C53.1005 37.82 52.7271 37.9133 52.4605 38.1C52.2071 38.2867 52.0805 38.52 52.0805 38.8C52.0805 39.0933 52.2738 39.3267 52.6605 39.5C53.0471 39.6733 53.5605 39.8333 54.2005 39.98C54.8938 40.14 55.5271 40.32 56.1005 40.52C56.6871 40.7067 57.1538 40.9933 57.5005 41.38C57.8471 41.7533 58.0205 42.2933 58.0205 43C58.0338 43.6133 57.8738 44.1667 57.5405 44.66C57.2071 45.1533 56.7271 45.54 56.1005 45.82C55.4738 46.1 54.7338 46.24 53.8805 46.24ZM60.6683 34.54C60.2016 34.54 59.8149 34.4 59.5083 34.12C59.2149 33.84 59.0683 33.4867 59.0683 33.06C59.0683 32.6333 59.2149 32.2867 59.5083 32.02C59.8149 31.74 60.2016 31.6 60.6683 31.6C61.1349 31.6 61.5149 31.74 61.8083 32.02C62.1149 32.2867 62.2683 32.6333 62.2683 33.06C62.2683 33.4867 62.1149 33.84 61.8083 34.12C61.5149 34.4 61.1349 34.54 60.6683 34.54ZM59.3883 46V36.08H61.9483V46H59.3883ZM63.6203 50.4V36.08H65.9003L66.1803 37.5C66.5003 37.06 66.9203 36.6733 67.4403 36.34C67.9736 36.0067 68.6603 35.84 69.5003 35.84C70.4336 35.84 71.267 36.0667 72.0003 36.52C72.7336 36.9733 73.3136 37.5933 73.7403 38.38C74.167 39.1667 74.3803 40.06 74.3803 41.06C74.3803 42.06 74.167 42.9533 73.7403 43.74C73.3136 44.5133 72.7336 45.1267 72.0003 45.58C71.267 46.02 70.4336 46.24 69.5003 46.24C68.7536 46.24 68.1003 46.1 67.5403 45.82C66.9803 45.54 66.527 45.1467 66.1803 44.64V50.4H63.6203ZM68.9603 44C69.7736 44 70.447 43.7267 70.9803 43.18C71.5136 42.6333 71.7803 41.9267 71.7803 41.06C71.7803 40.1933 71.5136 39.48 70.9803 38.92C70.447 38.36 69.7736 38.08 68.9603 38.08C68.1336 38.08 67.4536 38.36 66.9203 38.92C66.4003 39.4667 66.1403 40.1733 66.1403 41.04C66.1403 41.9067 66.4003 42.62 66.9203 43.18C67.4536 43.7267 68.1336 44 68.9603 44Z" fill="url(#paint0_linear_46284_301)"/>
    <defs>
        <linearGradient id="paint0_linear_46284_301" x1="-16.6451" y1="23.5001" x2="85" y2="23.5001" gradientUnits="userSpaceOnUse">
            <stop stop-color="#13B0F5"/>
            <stop offset="0.513967" stop-color="#805DCF"/>
            <stop offset="1" stop-color="#E70FAA"/>
        </linearGradient>
    </defs>
</svg>
